<mxfile host="app.diagrams.net" modified="2023-05-29T10:15:38.942Z" agent="Mozilla/5.0 (X11; Ubuntu; Linux aarch64; rv:109.0) Gecko/20100101 Firefox/113.0" version="21.3.3" etag="ROG59BVkG_6WSmajTABE" type="github">
  <diagram name="Page-1" id="BwCBE3sM1tf6ht_1rbH2">
    <mxGraphModel>
      <root>
        <mxCell id="0" />
        <mxCell id="1" parent="0" />
      </root>
    </mxGraphModel>
  </diagram>
</mxfile>
